# xmcd
#
# Track frame offsets:
# 249447
# 250197
# 250947
# 251697
# 252447
# 253197
# 253947
# 254697
# 255447
# 256197
# 256947
# 257697
# 258447
# 259197
# 259947
# 260697
# 272847
#
# Disc length: 4493 seconds
#
#
# Revision: 4
# Processed by: cddbd v1.5.1PL2 Copyright (c) Steve Scherf et al.
# Submitted via: FreeRIP 2.92 
#
DISCID=14049011
DTITLE=wheesung - wheesung2
DYEAR=1900
DGENRE=
TTITLE0=intro
TTITLE1=set me free
TTITLE2=다시 만난 날
TTITLE3=I am missing you
TTITLE4=With me
TTITLE5=사랑하지 않을 거라면
TTITLE6=Player
TTITLE7=말을 해줘
TTITLE8=Interlude
TTITLE9=Dilemma
TTITLE10=미원하고 싶은데
TTITLE11=Pretty
TTITLE12=미인
TTITLE13=Angel
TTITLE14=Outro
TTITLE15=Luz Control
TTITLE16=DATA
EXTD=
EXTT0=
EXTT1=
EXTT2=
EXTT3=
EXTT4=
EXTT5=
EXTT6=
EXTT7=
EXTT8=
EXTT9=
EXTT10=
EXTT11=
EXTT12=
EXTT13=
EXTT14=
EXTT15=
EXTT16=
PLAYORDER=
